<?xml version="1.0" encoding="UTF-8" standalone="no"?>
<!DOCTYPE svg PUBLIC "-//W3C//DTD SVG 1.1//EN"
 "http://www.w3.org/Graphics/SVG/1.1/DTD/svg11.dtd">
<!-- Generated by graphviz version 3.0.0 (20220315.2325)
 -->
<!-- Pages: 1 -->
<svg width="1171pt" height="159pt"
 viewBox="0.00 0.00 1170.51 158.87" xmlns="http://www.w3.org/2000/svg" xmlns:xlink="http://www.w3.org/1999/xlink">
<g id="graph0" class="graph" transform="scale(1 1) rotate(0) translate(4 154.87)">
<polygon fill="white" stroke="transparent" points="-4,4 -4,-154.87 1166.51,-154.87 1166.51,4 -4,4"/>
<g id="clust2" class="cluster">
<title>cluster_a</title>
<polygon fill="none" stroke="black" points="128.41,-58.87 128.41,-142.87 733.65,-142.87 733.65,-58.87 128.41,-58.87"/>
</g>
<!-- A -->
<g id="node1" class="node">
<title>A</title>
<ellipse fill="none" stroke="black" cx="50.2" cy="-123.87" rx="39.7" ry="26.74"/>
<text text-anchor="middle" x="50.2" y="-127.67" font-family="Times,serif" font-size="14.00">raw</text>
<text text-anchor="middle" x="50.2" y="-112.67" font-family="Times,serif" font-size="14.00">audio</text>
</g>
<!-- a -->
<g id="node3" class="node">
<title>a</title>
<ellipse fill="none" stroke="black" cx="203.58" cy="-97.87" rx="67.35" ry="26.74"/>
<text text-anchor="middle" x="203.58" y="-101.67" font-family="Times,serif" font-size="14.00">segmented</text>
<text text-anchor="middle" x="203.58" y="-86.67" font-family="Times,serif" font-size="14.00">audio</text>
</g>
<!-- A&#45;&gt;a -->
<g id="edge1" class="edge">
<title>A&#45;&gt;a</title>
<path fill="none" stroke="black" d="M89.01,-117.38C101.89,-115.16 116.74,-112.61 131.37,-110.1"/>
<polygon fill="black" stroke="black" points="132.17,-113.52 141.43,-108.37 130.98,-106.62 132.17,-113.52"/>
</g>
<!-- b -->
<g id="node4" class="node">
<title>b</title>
<ellipse fill="none" stroke="black" cx="386.66" cy="-102.87" rx="79.81" ry="26.74"/>
<text text-anchor="middle" x="386.66" y="-106.67" font-family="Times,serif" font-size="14.00">preprocessed</text>
<text text-anchor="middle" x="386.66" y="-91.67" font-family="Times,serif" font-size="14.00">audio</text>
</g>
<!-- A&#45;&gt;b -->
<g id="edge5" class="edge">
<title>A&#45;&gt;b</title>
<path fill="none" stroke="black" stroke-dasharray="5,2" d="M89.2,-129.78C101.66,-131.45 115.6,-133.04 128.41,-133.87 191.54,-137.94 208.04,-142.18 270.76,-133.87 286.47,-131.79 303.08,-128.17 318.64,-124.13"/>
<polygon fill="black" stroke="black" points="319.95,-127.4 328.7,-121.42 318.13,-120.64 319.95,-127.4"/>
</g>
<!-- D -->
<g id="node2" class="node">
<title>D</title>
<ellipse fill="none" stroke="black" cx="50.2" cy="-26.87" rx="50.41" ry="26.74"/>
<text text-anchor="middle" x="50.2" y="-30.67" font-family="Times,serif" font-size="14.00">general</text>
<text text-anchor="middle" x="50.2" y="-15.67" font-family="Times,serif" font-size="14.00">data</text>
</g>
<!-- F -->
<g id="node9" class="node">
<title>F</title>
<ellipse fill="none" stroke="black" cx="898.05" cy="-80.87" rx="49.29" ry="18"/>
<text text-anchor="middle" x="898.05" y="-77.17" font-family="Times,serif" font-size="14.00">features</text>
</g>
<!-- D&#45;&gt;F -->
<g id="edge9" class="edge">
<title>D&#45;&gt;F</title>
<path fill="none" stroke="black" d="M100.51,-26.87C165.75,-26.87 284.34,-26.87 385.66,-26.87 385.66,-26.87 385.66,-26.87 657.11,-26.87 726.81,-26.87 745.21,-29.26 812.65,-46.87 827.8,-50.83 843.87,-56.82 857.88,-62.67"/>
<polygon fill="black" stroke="black" points="856.64,-65.95 867.21,-66.68 859.4,-59.52 856.64,-65.95"/>
</g>
<!-- a&#45;&gt;b -->
<g id="edge2" class="edge">
<title>a&#45;&gt;b</title>
<path fill="none" stroke="black" d="M270.73,-99.7C279.15,-99.93 287.88,-100.17 296.59,-100.41"/>
<polygon fill="black" stroke="black" points="296.69,-103.91 306.78,-100.69 296.88,-96.92 296.69,-103.91"/>
</g>
<!-- c -->
<g id="node5" class="node">
<title>c</title>
<polygon fill="none" stroke="black" points="550.57,-134.87 502.57,-134.87 502.57,-86.87 550.57,-86.87 550.57,-134.87"/>
<text text-anchor="middle" x="526.57" y="-107.17" font-family="Times,serif" font-size="14.00">XGB</text>
</g>
<!-- b&#45;&gt;c -->
<g id="edge6" class="edge">
<title>b&#45;&gt;c</title>
<path fill="none" stroke="black" stroke-dasharray="5,2" d="M465.48,-107.38C474.83,-107.93 483.95,-108.46 492.15,-108.93"/>
<polygon fill="black" stroke="black" points="492.16,-112.44 502.34,-109.52 492.56,-105.45 492.16,-112.44"/>
</g>
<!-- S -->
<g id="node6" class="node">
<title>S</title>
<ellipse fill="none" stroke="black" cx="656.11" cy="-84.87" rx="69.59" ry="18"/>
<text text-anchor="middle" x="656.11" y="-81.17" font-family="Times,serif" font-size="14.00">spectrogram</text>
</g>
<!-- b&#45;&gt;S -->
<g id="edge3" class="edge">
<title>b&#45;&gt;S</title>
<path fill="none" stroke="black" d="M450.48,-86.66C467.28,-83.03 485.52,-79.7 502.57,-77.87 523.78,-75.59 529.24,-77.16 550.57,-77.87 559.88,-78.18 569.64,-78.65 579.32,-79.2"/>
<polygon fill="black" stroke="black" points="579.15,-82.69 589.34,-79.79 579.56,-75.7 579.15,-82.69"/>
</g>
<!-- c&#45;&gt;S -->
<g id="edge4" class="edge">
<title>c&#45;&gt;S</title>
<path fill="none" stroke="black" stroke-dasharray="5,2" d="M550.66,-106.16C562.09,-103.83 576.52,-100.89 590.97,-97.95"/>
<polygon fill="black" stroke="black" points="591.84,-101.34 600.94,-95.91 590.44,-94.48 591.84,-101.34"/>
</g>
<!-- O -->
<g id="node10" class="node">
<title>O</title>
<polygon fill="none" stroke="black" points="1162.54,-107.87 1138.51,-125.87 1090.44,-125.87 1066.41,-107.87 1090.44,-89.87 1138.51,-89.87 1162.54,-107.87"/>
<text text-anchor="middle" x="1114.48" y="-104.17" font-family="Times,serif" font-size="14.00">output</text>
</g>
<!-- c&#45;&gt;O -->
<g id="edge12" class="edge">
<title>c&#45;&gt;O</title>
<path fill="none" stroke="black" stroke-dasharray="5,2" d="M550.68,-114.46C595.82,-121.16 698.91,-134.87 786.15,-134.87 786.15,-134.87 786.15,-134.87 899.05,-134.87 956.88,-134.87 1022.81,-125.08 1066.12,-117.29"/>
<polygon fill="black" stroke="black" points="1066.88,-120.71 1076.08,-115.46 1065.62,-113.83 1066.88,-120.71"/>
</g>
<!-- C -->
<g id="node7" class="node">
<title>C</title>
<polygon fill="none" stroke="black" points="812.65,-106.37 761.65,-106.37 761.65,-55.37 812.65,-55.37 812.65,-106.37"/>
<text text-anchor="middle" x="787.15" y="-77.17" font-family="Times,serif" font-size="14.00">CNN</text>
</g>
<!-- S&#45;&gt;C -->
<g id="edge7" class="edge">
<title>S&#45;&gt;C</title>
<path fill="none" stroke="black" d="M725.41,-82.75C734.41,-82.47 743.3,-82.2 751.4,-81.95"/>
<polygon fill="black" stroke="black" points="751.64,-85.44 761.52,-81.63 751.42,-78.45 751.64,-85.44"/>
</g>
<!-- C&#45;&gt;F -->
<g id="edge8" class="edge">
<title>C&#45;&gt;F</title>
<path fill="none" stroke="black" d="M812.86,-80.87C820.52,-80.87 829.32,-80.87 838.26,-80.87"/>
<polygon fill="black" stroke="black" points="838.38,-84.37 848.38,-80.87 838.38,-77.37 838.38,-84.37"/>
</g>
<!-- R -->
<g id="node8" class="node">
<title>R</title>
<polygon fill="none" stroke="black" points="1030.44,-105.37 983.44,-105.37 983.44,-58.37 1030.44,-58.37 1030.44,-105.37"/>
<text text-anchor="middle" x="1006.94" y="-78.17" font-family="Times,serif" font-size="14.00">RFC</text>
</g>
<!-- R&#45;&gt;O -->
<g id="edge11" class="edge">
<title>R&#45;&gt;O</title>
<path fill="none" stroke="black" d="M1030.58,-87.45C1041.59,-90.16 1055.22,-93.52 1068.23,-96.72"/>
<polygon fill="black" stroke="black" points="1067.46,-100.14 1078,-99.13 1069.13,-93.34 1067.46,-100.14"/>
</g>
<!-- F&#45;&gt;R -->
<g id="edge10" class="edge">
<title>F&#45;&gt;R</title>
<path fill="none" stroke="black" d="M947.49,-81.32C956.17,-81.4 965.03,-81.49 973.14,-81.56"/>
<polygon fill="black" stroke="black" points="973.26,-85.06 983.29,-81.66 973.32,-78.06 973.26,-85.06"/>
</g>
</g>
</svg>
