<?xml version="1.0" encoding="UTF-8" standalone="no"?>
<!DOCTYPE svg PUBLIC "-//W3C//DTD SVG 1.1//EN"
 "http://www.w3.org/Graphics/SVG/1.1/DTD/svg11.dtd">
<!-- Generated by graphviz version 3.0.0 (20220315.2325)
 -->
<!-- Pages: 1 -->
<svg width="432pt" height="40pt"
 viewBox="0.00 0.00 432.00 39.54" xmlns="http://www.w3.org/2000/svg" xmlns:xlink="http://www.w3.org/1999/xlink">
<g id="graph0" class="graph" transform="scale(0.898551 0.898551) rotate(0) translate(4 40)">
<polygon fill="white" stroke="transparent" points="-4,4 -4,-40 476.77,-40 476.77,4 -4,4"/>
<!-- R -->
<g id="node1" class="node">
<title>R</title>
<ellipse fill="none" stroke="black" cx="56.54" cy="-18" rx="56.59" ry="18"/>
<text text-anchor="middle" x="56.54" y="-14.3" font-family="Times,serif" font-size="14.00">raw audio</text>
</g>
<!-- S -->
<g id="node2" class="node">
<title>S</title>
<ellipse fill="none" stroke="black" cx="239.43" cy="-18" rx="90.18" ry="18"/>
<text text-anchor="middle" x="239.43" y="-14.3" font-family="Times,serif" font-size="14.00">segmented audio</text>
</g>
<!-- R&#45;&gt;S -->
<g id="edge1" class="edge">
<title>R&#45;&gt;S</title>
<path fill="none" stroke="black" d="M113.29,-18C121.43,-18 130,-18 138.69,-18"/>
<polygon fill="black" stroke="black" points="138.92,-21.5 148.92,-18 138.92,-14.5 138.92,-21.5"/>
</g>
<!-- G -->
<g id="node3" class="node">
<title>G</title>
<polygon fill="none" stroke="black" points="472.77,-36 365.77,-36 365.77,0 472.77,0 472.77,-36"/>
<text text-anchor="middle" x="419.27" y="-14.3" font-family="Times,serif" font-size="14.00">spectrogram</text>
</g>
<!-- S&#45;&gt;G -->
<g id="edge2" class="edge">
<title>S&#45;&gt;G</title>
<path fill="none" stroke="black" d="M329.87,-18C338.61,-18 347.33,-18 355.71,-18"/>
<polygon fill="black" stroke="black" points="355.74,-21.5 365.74,-18 355.74,-14.5 355.74,-21.5"/>
</g>
</g>
</svg>
