<?xml version="1.0" encoding="UTF-8" standalone="no"?>
<!DOCTYPE svg PUBLIC "-//W3C//DTD SVG 1.1//EN"
 "http://www.w3.org/Graphics/SVG/1.1/DTD/svg11.dtd">
<!-- Generated by graphviz version 3.0.0 (20220315.2325)
 -->
<!-- Pages: 1 -->
<svg width="720pt" height="89pt"
 viewBox="0.00 0.00 720.00 89.25" xmlns="http://www.w3.org/2000/svg" xmlns:xlink="http://www.w3.org/1999/xlink">
<g id="graph0" class="graph" transform="scale(0.910679 0.910679) rotate(0) translate(4 94)">
<polygon fill="white" stroke="transparent" points="-4,4 -4,-94 786.62,-94 786.62,4 -4,4"/>
<!-- A -->
<g id="node1" class="node">
<title>A</title>
<ellipse fill="none" stroke="black" cx="69.54" cy="-72" rx="36.29" ry="18"/>
<text text-anchor="middle" x="69.54" y="-68.3" font-family="Times,serif" font-size="14.00">audio</text>
</g>
<!-- S -->
<g id="node3" class="node">
<title>S</title>
<ellipse fill="none" stroke="black" cx="244.63" cy="-70" rx="69.59" ry="18"/>
<text text-anchor="middle" x="244.63" y="-66.3" font-family="Times,serif" font-size="14.00">spectrogram</text>
</g>
<!-- A&#45;&gt;S -->
<g id="edge1" class="edge">
<title>A&#45;&gt;S</title>
<path fill="none" stroke="black" d="M105.99,-71.59C123.07,-71.39 144.3,-71.15 164.92,-70.91"/>
<polygon fill="black" stroke="black" points="165.02,-74.41 174.98,-70.79 164.94,-67.41 165.02,-74.41"/>
</g>
<!-- D -->
<g id="node2" class="node">
<title>D</title>
<ellipse fill="none" stroke="black" cx="69.54" cy="-18" rx="69.59" ry="18"/>
<text text-anchor="middle" x="69.54" y="-14.3" font-family="Times,serif" font-size="14.00">general data</text>
</g>
<!-- F -->
<g id="node6" class="node">
<title>F</title>
<ellipse fill="none" stroke="black" cx="489.57" cy="-41" rx="49.29" ry="18"/>
<text text-anchor="middle" x="489.57" y="-37.3" font-family="Times,serif" font-size="14.00">features</text>
</g>
<!-- D&#45;&gt;F -->
<g id="edge4" class="edge">
<title>D&#45;&gt;F</title>
<path fill="none" stroke="black" d="M137.71,-21.7C218.6,-26.15 353.18,-33.55 430.02,-37.78"/>
<polygon fill="black" stroke="black" points="430.29,-41.3 440.47,-38.35 430.68,-34.31 430.29,-41.3"/>
</g>
<!-- C -->
<g id="node4" class="node">
<title>C</title>
<polygon fill="none" stroke="black" points="404.18,-86 350.18,-86 350.18,-50 404.18,-50 404.18,-86"/>
<text text-anchor="middle" x="377.18" y="-64.3" font-family="Times,serif" font-size="14.00">CNN</text>
</g>
<!-- S&#45;&gt;C -->
<g id="edge2" class="edge">
<title>S&#45;&gt;C</title>
<path fill="none" stroke="black" d="M314.34,-68.95C323.14,-68.81 331.86,-68.68 339.85,-68.56"/>
<polygon fill="black" stroke="black" points="339.93,-72.06 349.88,-68.4 339.82,-65.06 339.93,-72.06"/>
</g>
<!-- C&#45;&gt;F -->
<g id="edge3" class="edge">
<title>C&#45;&gt;F</title>
<path fill="none" stroke="black" d="M404.34,-61.6C414.5,-59.12 426.5,-56.18 438.2,-53.32"/>
<polygon fill="black" stroke="black" points="439.04,-56.72 447.92,-50.94 437.37,-49.92 439.04,-56.72"/>
</g>
<!-- R -->
<g id="node5" class="node">
<title>R</title>
<polygon fill="none" stroke="black" points="628.97,-59 574.97,-59 574.97,-23 628.97,-23 628.97,-59"/>
<text text-anchor="middle" x="601.97" y="-37.3" font-family="Times,serif" font-size="14.00">RFC</text>
</g>
<!-- O -->
<g id="node7" class="node">
<title>O</title>
<polygon fill="none" stroke="black" points="723.79,-59 665.14,-41 723.79,-23 782.45,-41 723.79,-59"/>
<text text-anchor="middle" x="723.79" y="-37.3" font-family="Times,serif" font-size="14.00">output</text>
</g>
<!-- R&#45;&gt;O -->
<g id="edge6" class="edge">
<title>R&#45;&gt;O</title>
<path fill="none" stroke="black" d="M628.97,-41C636.75,-41 645.67,-41 654.85,-41"/>
<polygon fill="black" stroke="black" points="654.87,-44.5 664.87,-41 654.87,-37.5 654.87,-44.5"/>
</g>
<!-- F&#45;&gt;R -->
<g id="edge5" class="edge">
<title>F&#45;&gt;R</title>
<path fill="none" stroke="black" d="M538.99,-41C547.63,-41 556.49,-41 564.71,-41"/>
<polygon fill="black" stroke="black" points="564.72,-44.5 574.72,-41 564.72,-37.5 564.72,-44.5"/>
</g>
</g>
</svg>
